

<svg width="301" height="282" viewBox="0 0 301 282" fill="none" xmlns="http://www.w3.org/2000/svg">
    <style>
    #rectangulo1 {
    fill: yellow;
    }

    </style>
    <rect id="rectangulo1" width="301" height="282" fill="#FF8686"/>
    <rect x="30" y="34" width="245" height="211" fill="#9CE7FF"/>
    <path d="M91 184L72.5 141C85.6667 149.333 112.3 166.7 113.5 169.5C114.7 172.3 125 174 130 174.5V145L76 120.5L83.5 86.5L130 107.5L153.5 111L168 120.5L177.5 141L182.5 160.5L160.5 196.5H130L91 184Z" fill="#D9D9D9" stroke="black"/>
    <path d="M65.7614 79V64.4545H67.5227V70.9318H75.2784V64.4545H77.0398V79H75.2784V72.4943H67.5227V79H65.7614ZM84.7706 79.2273C83.7857 79.2273 82.9216 78.9929 82.1783 78.5241C81.4396 78.0554 80.862 77.3996 80.4453 76.5568C80.0334 75.714 79.8274 74.7292 79.8274 73.6023C79.8274 72.4659 80.0334 71.474 80.4453 70.6264C80.862 69.7789 81.4396 69.1207 82.1783 68.652C82.9216 68.1832 83.7857 67.9489 84.7706 67.9489C85.7554 67.9489 86.6172 68.1832 87.3558 68.652C88.0992 69.1207 88.6768 69.7789 89.0888 70.6264C89.5054 71.474 89.7138 72.4659 89.7138 73.6023C89.7138 74.7292 89.5054 75.714 89.0888 76.5568C88.6768 77.3996 88.0992 78.0554 87.3558 78.5241C86.6172 78.9929 85.7554 79.2273 84.7706 79.2273ZM84.7706 77.7216C85.5187 77.7216 86.1342 77.5298 86.6172 77.1463C87.1001 76.7628 87.4576 76.2585 87.6896 75.6335C87.9216 75.0085 88.0376 74.3314 88.0376 73.6023C88.0376 72.8731 87.9216 72.1937 87.6896 71.5639C87.4576 70.9342 87.1001 70.4252 86.6172 70.0369C86.1342 69.6487 85.5187 69.4545 84.7706 69.4545C84.0225 69.4545 83.407 69.6487 82.924 70.0369C82.4411 70.4252 82.0836 70.9342 81.8516 71.5639C81.6196 72.1937 81.5036 72.8731 81.5036 73.6023C81.5036 74.3314 81.6196 75.0085 81.8516 75.6335C82.0836 76.2585 82.4411 76.7628 82.924 77.1463C83.407 77.5298 84.0225 77.7216 84.7706 77.7216ZM93.9485 64.4545V79H92.2724V64.4545H93.9485ZM100.229 79.2557C99.5374 79.2557 98.91 79.1255 98.3466 78.8651C97.7831 78.5999 97.3357 78.2188 97.0043 77.7216C96.6728 77.2197 96.5071 76.6136 96.5071 75.9034C96.5071 75.2784 96.6302 74.7718 96.8764 74.3835C97.1226 73.9905 97.4517 73.6828 97.8636 73.4602C98.2756 73.2377 98.7301 73.072 99.2273 72.9631C99.7292 72.8494 100.233 72.7595 100.74 72.6932C101.403 72.608 101.94 72.544 102.352 72.5014C102.769 72.4541 103.072 72.3759 103.261 72.267C103.455 72.1581 103.553 71.9687 103.553 71.6989V71.642C103.553 70.9413 103.361 70.3968 102.977 70.0085C102.598 69.6203 102.023 69.4261 101.251 69.4261C100.451 69.4261 99.8239 69.6013 99.3693 69.9517C98.9148 70.3021 98.5952 70.6761 98.4105 71.0739L96.8196 70.5057C97.1037 69.8428 97.4825 69.3267 97.956 68.9574C98.4342 68.5833 98.955 68.3229 99.5185 68.1761C100.087 68.0246 100.645 67.9489 101.195 67.9489C101.545 67.9489 101.947 67.9915 102.402 68.0767C102.861 68.1572 103.304 68.3253 103.73 68.581C104.161 68.8366 104.518 69.2225 104.803 69.7386C105.087 70.2547 105.229 70.946 105.229 71.8125V79H103.553V77.5227H103.467C103.354 77.7595 103.164 78.0128 102.899 78.2827C102.634 78.5526 102.281 78.7822 101.841 78.9716C101.401 79.161 100.863 79.2557 100.229 79.2557ZM100.484 77.75C101.147 77.75 101.706 77.6198 102.161 77.3594C102.62 77.099 102.965 76.7628 103.197 76.3509C103.434 75.9389 103.553 75.5057 103.553 75.0511V73.517C103.482 73.6023 103.325 73.6804 103.084 73.7514C102.847 73.8177 102.572 73.8769 102.26 73.929C101.952 73.9763 101.652 74.0189 101.358 74.0568C101.069 74.09 100.835 74.1184 100.655 74.142C100.219 74.1989 99.812 74.2912 99.4332 74.419C99.0592 74.5421 98.7562 74.7292 98.5241 74.9801C98.2969 75.2263 98.1832 75.5625 98.1832 75.9886C98.1832 76.571 98.3987 77.0114 98.8295 77.3097C99.2652 77.6032 99.8168 77.75 100.484 77.75ZM113.913 79V68.0909H115.532V69.7955H115.674C115.902 69.2131 116.269 68.7609 116.775 68.4389C117.282 68.1122 117.89 67.9489 118.6 67.9489C119.32 67.9489 119.919 68.1122 120.397 68.4389C120.88 68.7609 121.257 69.2131 121.527 69.7955H121.64C121.92 69.232 122.339 68.7846 122.897 68.4531C123.456 68.117 124.126 67.9489 124.907 67.9489C125.883 67.9489 126.681 68.2543 127.301 68.8651C127.921 69.4711 128.231 70.4157 128.231 71.6989V79H126.555V71.6989C126.555 70.8939 126.335 70.3187 125.895 69.973C125.454 69.6274 124.936 69.4545 124.339 69.4545C123.572 69.4545 122.978 69.6866 122.556 70.1506C122.135 70.6098 121.924 71.1922 121.924 71.8977V79H120.22V71.5284C120.22 70.9081 120.019 70.4086 119.616 70.0298C119.214 69.6463 118.695 69.4545 118.061 69.4545C117.625 69.4545 117.218 69.5705 116.839 69.8026C116.465 70.0346 116.162 70.3565 115.93 70.7685C115.703 71.1757 115.589 71.6468 115.589 72.1818V79H113.913ZM138.171 74.5398V68.0909H139.847V79H138.171V77.1534H138.057C137.801 77.7074 137.404 78.1785 136.864 78.5668C136.324 78.9503 135.642 79.142 134.819 79.142C134.137 79.142 133.531 78.9929 133 78.6946C132.47 78.3916 132.053 77.937 131.75 77.331C131.447 76.7202 131.296 75.9508 131.296 75.0227V68.0909H132.972V74.9091C132.972 75.7045 133.194 76.339 133.64 76.8125C134.089 77.286 134.662 77.5227 135.358 77.5227C135.775 77.5227 136.199 77.4162 136.63 77.2031C137.065 76.9901 137.43 76.6634 137.723 76.223C138.022 75.7827 138.171 75.2216 138.171 74.5398ZM144.593 72.4375V79H142.917V68.0909H144.536V69.7955H144.678C144.934 69.2415 145.322 68.7964 145.843 68.4602C146.364 68.1193 147.036 67.9489 147.86 67.9489C148.599 67.9489 149.245 68.1004 149.799 68.4034C150.353 68.7017 150.784 69.1562 151.092 69.767C151.399 70.3731 151.553 71.1402 151.553 72.0682V79H149.877V72.1818C149.877 71.3248 149.655 70.6572 149.21 70.179C148.764 69.696 148.154 69.4545 147.377 69.4545C146.842 69.4545 146.364 69.5705 145.942 69.8026C145.526 70.0346 145.197 70.3731 144.955 70.8182C144.714 71.2633 144.593 71.803 144.593 72.4375ZM158.735 79.2273C157.826 79.2273 157.024 78.9976 156.328 78.5384C155.632 78.0743 155.087 77.4209 154.694 76.5781C154.301 75.7306 154.105 74.7292 154.105 73.5739C154.105 72.428 154.301 71.4337 154.694 70.5909C155.087 69.7481 155.634 69.0971 156.335 68.6378C157.036 68.1785 157.845 67.9489 158.764 67.9489C159.474 67.9489 160.035 68.0672 160.447 68.304C160.864 68.536 161.181 68.8011 161.399 69.0994C161.621 69.393 161.794 69.6345 161.917 69.8239H162.059V64.4545H163.735V79H162.116V77.3239H161.917C161.794 77.5227 161.619 77.7737 161.392 78.0767C161.164 78.375 160.84 78.6425 160.419 78.8793C159.997 79.1113 159.436 79.2273 158.735 79.2273ZM158.963 77.7216C159.635 77.7216 160.203 77.5464 160.667 77.196C161.131 76.8409 161.484 76.3509 161.725 75.7259C161.967 75.0961 162.088 74.3693 162.088 73.5455C162.088 72.7311 161.969 72.0185 161.733 71.4077C161.496 70.7921 161.145 70.3139 160.681 69.973C160.217 69.6274 159.645 69.4545 158.963 69.4545C158.252 69.4545 157.661 69.6368 157.187 70.0014C156.718 70.3613 156.366 70.8513 156.129 71.4716C155.897 72.0871 155.781 72.7784 155.781 73.5455C155.781 74.322 155.899 75.0275 156.136 75.6619C156.377 76.2917 156.733 76.7936 157.201 77.1676C157.675 77.5369 158.262 77.7216 158.963 77.7216ZM171.47 79.2273C170.485 79.2273 169.621 78.9929 168.877 78.5241C168.139 78.0554 167.561 77.3996 167.145 76.5568C166.733 75.714 166.527 74.7292 166.527 73.6023C166.527 72.4659 166.733 71.474 167.145 70.6264C167.561 69.7789 168.139 69.1207 168.877 68.652C169.621 68.1832 170.485 67.9489 171.47 67.9489C172.455 67.9489 173.316 68.1832 174.055 68.652C174.798 69.1207 175.376 69.7789 175.788 70.6264C176.205 71.474 176.413 72.4659 176.413 73.6023C176.413 74.7292 176.205 75.714 175.788 76.5568C175.376 77.3996 174.798 78.0554 174.055 78.5241C173.316 78.9929 172.455 79.2273 171.47 79.2273ZM171.47 77.7216C172.218 77.7216 172.833 77.5298 173.316 77.1463C173.799 76.7628 174.157 76.2585 174.389 75.6335C174.621 75.0085 174.737 74.3314 174.737 73.6023C174.737 72.8731 174.621 72.1937 174.389 71.5639C174.157 70.9342 173.799 70.4252 173.316 70.0369C172.833 69.6487 172.218 69.4545 171.47 69.4545C170.722 69.4545 170.106 69.6487 169.623 70.0369C169.14 70.4252 168.783 70.9342 168.551 71.5639C168.319 72.1937 168.203 72.8731 168.203 73.6023C168.203 74.3314 168.319 75.0085 168.551 75.6335C168.783 76.2585 169.14 76.7628 169.623 77.1463C170.106 77.5298 170.722 77.7216 171.47 77.7216ZM192.778 68.0909C192.693 67.3712 192.348 66.8125 191.741 66.4148C191.135 66.017 190.392 65.8182 189.511 65.8182C188.867 65.8182 188.304 65.9223 187.821 66.1307C187.343 66.339 186.969 66.6255 186.699 66.9901C186.434 67.3546 186.301 67.7689 186.301 68.233C186.301 68.6212 186.393 68.955 186.578 69.2344C186.768 69.509 187.009 69.7386 187.303 69.9233C187.596 70.1032 187.904 70.2524 188.226 70.3707C188.548 70.4844 188.844 70.5767 189.114 70.6477L190.591 71.0455C190.97 71.1449 191.391 71.2822 191.855 71.4574C192.324 71.6326 192.771 71.8717 193.197 72.1747C193.628 72.473 193.983 72.8565 194.263 73.3253C194.542 73.794 194.682 74.3693 194.682 75.0511C194.682 75.8371 194.476 76.5473 194.064 77.1818C193.657 77.8163 193.06 78.3205 192.274 78.6946C191.493 79.0687 190.544 79.2557 189.426 79.2557C188.384 79.2557 187.482 79.0876 186.72 78.7514C185.963 78.4152 185.366 77.9465 184.93 77.3452C184.5 76.7438 184.256 76.0455 184.199 75.25H186.017C186.064 75.7992 186.249 76.2538 186.571 76.6136C186.898 76.9687 187.31 77.2339 187.807 77.4091C188.309 77.5795 188.848 77.6648 189.426 77.6648C190.098 77.6648 190.702 77.5559 191.237 77.3381C191.772 77.1155 192.196 76.8078 192.509 76.4148C192.821 76.017 192.977 75.553 192.977 75.0227C192.977 74.5398 192.842 74.1468 192.572 73.8438C192.303 73.5407 191.947 73.2945 191.507 73.1051C191.067 72.9157 190.591 72.75 190.08 72.608L188.29 72.0966C187.153 71.7699 186.254 71.3035 185.591 70.6974C184.928 70.0914 184.597 69.2983 184.597 68.3182C184.597 67.5038 184.817 66.7936 185.257 66.1875C185.702 65.5767 186.299 65.1032 187.047 64.767C187.8 64.4261 188.64 64.2557 189.568 64.2557C190.506 64.2557 191.339 64.4238 192.068 64.7599C192.797 65.0914 193.375 65.5459 193.801 66.1236C194.232 66.7012 194.459 67.357 194.483 68.0909H192.778ZM198.174 64.4545L202.493 76.6989H202.663L206.981 64.4545H208.828L203.487 79H201.669L196.328 64.4545H198.174ZM220.353 69C220.197 68.5218 219.991 68.0933 219.735 67.7145C219.484 67.331 219.183 67.0043 218.833 66.7344C218.487 66.4645 218.094 66.2585 217.654 66.1165C217.214 65.9744 216.731 65.9034 216.205 65.9034C215.344 65.9034 214.56 66.1259 213.854 66.571C213.149 67.0161 212.588 67.6719 212.171 68.5384C211.754 69.4048 211.546 70.4678 211.546 71.7273C211.546 72.9867 211.757 74.0497 212.178 74.9162C212.6 75.7827 213.17 76.4384 213.89 76.8835C214.61 77.3286 215.419 77.5511 216.319 77.5511C217.152 77.5511 217.886 77.3736 218.521 77.0185C219.16 76.6586 219.657 76.152 220.012 75.4986C220.372 74.8404 220.552 74.0663 220.552 73.1761L221.092 73.2898H216.717V71.7273H222.256V73.2898C222.256 74.4877 222.001 75.5294 221.489 76.4148C220.983 77.3002 220.282 77.9867 219.387 78.4744C218.497 78.9574 217.474 79.1989 216.319 79.1989C215.031 79.1989 213.899 78.8958 212.924 78.2898C211.953 77.6837 211.196 76.822 210.651 75.7045C210.112 74.5871 209.842 73.2614 209.842 71.7273C209.842 70.5767 209.996 69.5421 210.303 68.6236C210.616 67.7003 211.056 66.9143 211.624 66.2656C212.192 65.617 212.865 65.1198 213.641 64.7741C214.418 64.4285 215.272 64.2557 216.205 64.2557C216.972 64.2557 217.687 64.3717 218.35 64.6037C219.018 64.831 219.612 65.1553 220.133 65.5767C220.658 65.9934 221.096 66.4929 221.447 67.0753C221.797 67.6529 222.039 68.2945 222.171 69H220.353Z" fill="black"/>
    <path d="M299.5 33.5C299.5 50.9509 282.728 65.5 261.5 65.5C240.272 65.5 223.5 50.9509 223.5 33.5C223.5 16.0491 240.272 1.5 261.5 1.5C282.728 1.5 299.5 16.0491 299.5 33.5Z" fill="#3FACE9" stroke="#231385" stroke-width="3"/>
</svg>


